<svg width="179" height="54" viewBox="0 0 179 54" fill="none" xmlns="http://www.w3.org/2000/svg">
<path d="M6.27163 0.314941C2.81096 0.314941 0 3.1259 0 6.58657V47.0803C0 50.5278 2.81096 53.352 6.27163 53.352H172.636C176.083 53.352 179 50.5278 179 47.0803V6.58657C179 3.1259 176.083 0.314941 172.636 0.314941H6.27163ZM37.4309 8.5622C37.6563 10.5643 36.8607 12.5267 35.7072 13.9852C34.5006 15.404 32.5647 16.5045 30.6819 16.3586C30.43 14.4361 31.3847 12.3809 32.4587 11.1345C33.6653 9.71576 35.7602 8.6285 37.4309 8.5622ZM92.8679 9.01301H94.2601V18.1221H92.8679V9.01301ZM115.621 9.01301H116.947V16.4382C116.947 17.0481 117.079 17.6183 117.079 18.1221H115.833V17.1277C115.435 17.8835 114.772 18.268 113.831 18.268C113.075 18.268 112.452 17.9763 111.948 17.3796C111.457 16.7962 111.205 16.0272 111.205 15.0725C111.205 14.0648 111.471 13.2427 112.014 12.6195C112.531 12.0361 113.181 11.7444 113.937 11.7444C114.785 11.7444 115.369 12.0229 115.7 12.593L115.621 9.01301ZM147.708 9.01301H149.034V12.7786H149.167C149.564 12.0892 150.227 11.7444 151.023 11.7444C151.553 11.7444 152.084 11.9301 152.481 12.3146C152.879 12.7786 153.144 13.4814 153.144 14.4095V18.1221H151.686V14.5686C151.686 13.4549 151.288 12.8847 150.493 12.8847C149.83 12.8847 149.432 13.2162 149.167 13.8659C149.167 13.9985 149.034 14.1709 149.034 14.3698V18.1221H147.708V9.01301ZM60.3031 9.39753C61.8279 9.39753 62.9682 9.72902 63.7373 10.3787C64.5991 11.1345 65.0367 12.1952 65.0367 13.5875C65.0367 15.1521 64.5726 16.3189 63.6312 17.1144C62.7693 17.8437 61.5362 18.2017 59.9451 18.2017C59.1496 18.2017 58.4733 18.2017 57.9164 18.0691V9.54338C58.6457 9.41079 59.4413 9.37102 60.3031 9.37102V9.39753ZM144.261 10.3124V11.877H145.719V12.9112H144.261V15.9476C144.261 16.7299 144.526 17.1144 145.056 17.1144C145.321 17.1144 145.454 17.1144 145.719 16.9818V18.0293C145.454 18.1619 145.056 18.1884 144.659 18.1884C144.128 18.1884 143.598 18.0161 143.333 17.6846C143.067 17.3531 142.935 16.7962 142.935 16.0006V12.9112H142.007V11.877H142.935V10.7367L144.261 10.3124ZM60.4224 10.4848C59.9849 10.4848 59.6136 10.4848 59.2954 10.6174V17.1012H60.2368C61.2976 17.1012 62.1196 16.7962 62.703 16.2128C63.2864 15.6161 63.5782 14.7543 63.5782 13.6272C63.5782 12.6063 63.2997 11.8372 62.7693 11.2936C62.239 10.75 61.4567 10.4848 60.4224 10.4848ZM158.05 11.7312C158.979 11.7312 159.641 12.0759 160.172 12.7389C160.57 13.2692 160.702 13.9322 160.702 14.7012V15.3377H156.459C156.459 15.9476 156.724 16.4249 157.122 16.7432C157.387 17.0349 157.918 17.1807 158.448 17.1807C159.111 17.1807 159.641 17.0481 160.172 16.889L160.304 17.8569C159.774 18.1089 159.111 18.2415 158.316 18.2415C157.255 18.2415 156.592 17.963 155.929 17.3929C155.399 16.8227 155.133 16.0537 155.133 15.0858C155.133 14.1443 155.399 13.3621 155.929 12.7389C156.459 12.0759 157.122 11.7312 158.05 11.7312ZM88.2536 11.7312C88.837 11.7312 89.3144 11.9301 89.6989 12.3013C90.1895 12.7654 90.4281 13.4549 90.4281 14.3698V18.1221H89.0359V14.5421C89.0359 13.4283 88.6116 12.8847 87.7763 12.8847C87.3653 12.8847 87.0338 13.0306 86.7686 13.3355C86.5167 13.6405 86.3841 13.9985 86.3841 14.4095V18.1221H84.9919V13.6538V11.8638H86.2117L86.3443 12.8449C86.5167 12.54 86.7553 12.2881 87.0736 12.0892C87.4448 11.8505 87.8691 11.7312 88.3332 11.7312H88.2536ZM134.184 11.7312C134.847 11.7312 135.244 11.9301 135.642 12.3013C136.173 12.7654 136.438 13.4549 136.438 14.3698V18.1221H134.979V14.5421C134.979 13.4283 134.581 12.8847 133.786 12.8847C133.388 12.8847 132.99 13.0306 132.725 13.3355C132.46 13.6405 132.327 13.9985 132.327 14.4095V18.1221H131.001V13.6538C131.001 13.1101 131.001 12.5135 130.869 11.8638H132.195V12.8449C132.46 12.54 132.725 12.2881 132.99 12.0892C133.388 11.8505 133.786 11.7312 134.184 11.7312ZM69.7967 11.7312C70.7116 11.7312 71.4541 12.0361 72.011 12.6461C72.5414 13.2427 72.8066 13.9985 72.8066 14.9399C72.8066 15.8946 72.5282 16.6901 71.9845 17.3001C71.4011 17.9365 70.6453 18.2547 69.6907 18.2547C68.7758 18.2547 68.0465 17.9498 67.5029 17.3398C66.9593 16.7299 66.6808 15.9609 66.6808 15.046C66.6808 14.0781 66.9593 13.2825 67.5294 12.6593C68.0863 12.0494 68.8421 11.7312 69.7967 11.7312ZM99.4312 11.7312C100.346 11.7312 101.075 12.0361 101.645 12.6461C102.176 13.2427 102.441 13.9985 102.441 14.9399C102.441 15.8946 102.163 16.6901 101.619 17.3001C101.036 17.9365 100.28 18.2547 99.3251 18.2547C98.4102 18.2547 97.681 17.9498 97.1373 17.3398C96.5937 16.7299 96.3153 15.9609 96.3153 15.046C96.3153 14.0781 96.5937 13.2825 97.1638 12.6593C97.7207 12.0494 98.4765 11.7312 99.4312 11.7312ZM106.618 11.7312C108.249 11.7312 109.071 12.593 109.071 14.3167V16.6238C109.071 17.247 109.071 17.7509 109.203 18.1089H107.957L107.824 17.3929C107.4 17.963 106.79 18.2547 105.995 18.2547C105.411 18.2547 104.934 18.0691 104.576 17.6846C104.244 17.3531 104.085 16.9155 104.085 16.4117C104.085 15.6559 104.403 15.0725 105.04 14.6615C105.69 14.2637 106.578 14.0648 107.745 14.0781V13.9455C107.745 13.1234 107.307 12.7123 106.445 12.7123C105.822 12.7123 105.279 12.8715 104.814 13.1764L104.523 12.2615C105.106 11.9035 105.822 11.7179 106.671 11.7179L106.618 11.7312ZM125.963 11.7312C126.891 11.7312 127.554 12.0361 128.084 12.6461C128.615 13.2427 128.88 13.9985 128.88 14.9399C128.88 15.8946 128.615 16.6901 128.084 17.3001C127.554 17.9365 126.759 18.2547 125.83 18.2547C124.902 18.2547 124.239 17.9498 123.576 17.3398C123.046 16.7299 122.781 15.9609 122.781 15.046C122.781 14.0781 123.046 13.2825 123.709 12.6593C124.239 12.0494 125.035 11.7312 125.963 11.7312ZM74.1723 11.8638H75.591L76.2938 14.8338C76.4661 15.5366 76.612 16.2128 76.7313 16.836C76.8639 16.3189 76.9965 15.6559 77.2352 14.8471L78.1236 11.8638H79.2639L80.1124 14.7808C80.3113 15.4968 80.4837 16.1863 80.603 16.8492C80.7356 16.1995 80.8417 15.5101 81.0273 14.7808L81.7964 11.8638H83.1621L81.1997 18.1089H79.9268L79.118 15.404C78.9059 14.7278 78.7467 14.0515 78.6142 13.3753C78.4816 14.0648 78.3224 14.741 78.1103 15.404L77.2485 18.1089H75.9623L74.1723 11.8638ZM158.05 12.6858C157.52 12.6858 157.122 12.8715 156.857 13.256C156.724 13.5477 156.592 13.9189 156.459 14.33H159.376C159.376 13.9189 159.244 13.5609 159.111 13.2692C158.846 12.8847 158.448 12.6858 158.05 12.6858ZM69.7437 12.8184C69.1868 12.8184 68.7625 13.0703 68.4708 13.5609C68.2189 13.972 68.0996 14.4758 68.0996 15.0725C68.0996 15.6559 68.2321 16.1465 68.4708 16.5575C68.7758 17.0614 69.1868 17.3001 69.7304 17.3001C70.2608 17.3001 70.6851 17.0481 70.9768 16.5443C71.242 16.12 71.3613 15.6294 71.3613 15.046C71.3613 14.4758 71.2287 13.972 70.9901 13.5609C70.6984 13.0703 70.2873 12.8184 69.7437 12.8184ZM99.3781 12.8184C98.8213 12.8184 98.397 13.0703 98.1053 13.5609C97.8533 13.972 97.734 14.4758 97.734 15.0725C97.734 15.6559 97.8666 16.1465 98.1053 16.5575C98.4102 17.0614 98.8213 17.3001 99.3649 17.3001C99.8953 17.3001 100.306 17.0481 100.611 16.5443C100.863 16.12 100.996 15.6294 100.996 15.046C100.996 14.4758 100.863 13.972 100.625 13.5609C100.333 13.0703 99.9218 12.8184 99.3781 12.8184ZM125.83 12.8184C125.3 12.8184 124.902 13.0703 124.637 13.5609C124.372 13.972 124.239 14.4758 124.239 15.0725C124.239 15.6559 124.372 16.1465 124.637 16.5575C124.902 17.0614 125.3 17.3001 125.83 17.3001C126.361 17.3001 126.759 17.0481 127.156 16.5443C127.421 16.12 127.554 15.6294 127.554 15.046C127.554 14.4758 127.421 13.972 127.156 13.5609C126.891 13.0703 126.361 12.8184 125.83 12.8184ZM114.149 12.951C113.632 12.951 113.221 13.1499 112.929 13.5609C112.624 13.972 112.478 14.5023 112.478 15.1521C112.478 15.762 112.624 16.2658 112.903 16.6503C113.208 17.0614 113.619 17.2735 114.122 17.2735C114.573 17.2735 114.945 17.1012 115.223 16.7564C115.488 16.4382 115.621 16.0537 115.621 15.6161V14.5686V14.1311C115.488 13.7996 115.369 13.5212 115.117 13.2825C114.86 13.0592 114.529 12.9408 114.189 12.951H114.149ZM107.718 15.1388C106.193 15.1388 105.424 15.5233 105.424 16.3984C105.424 16.7166 105.557 16.9686 105.69 17.1277C105.862 17.2868 106.101 17.3664 106.366 17.3664C106.671 17.3664 106.962 17.2338 107.214 17.0879C107.48 16.889 107.639 16.6371 107.692 16.3454V16.0935L107.718 15.1388ZM36.4364 16.8492H37.4044C38.5049 16.8492 41.6076 17.2868 43.6097 20.2038C43.4506 20.3364 39.9104 22.3783 39.9501 26.6478C39.9501 31.7792 44.4318 33.4631 44.4848 33.4896C44.4848 33.6222 43.7821 35.9293 42.1247 38.2895C40.7324 40.3712 39.2739 42.3998 36.9668 42.4396C34.7127 42.4396 33.957 41.1137 31.3847 41.1137C28.7859 41.1137 27.977 42.3998 25.829 42.4926C23.628 42.6252 21.9441 40.2784 20.4988 38.2099C17.6216 34.0067 15.3807 26.3694 18.3906 21.1585C19.8491 18.6127 22.501 16.9686 25.3384 16.9288C27.5395 16.9288 29.5814 18.4138 30.9471 18.4138C32.1007 18.4138 34.1824 17.0083 36.4364 16.836V16.8492ZM112.054 24.1816C113.658 24.1816 114.984 24.4601 116.058 25.0169L115.342 27.3241C114.348 26.7804 113.221 26.5152 111.974 26.5152C110.98 26.5152 110.198 26.7672 109.641 27.2445C109.163 27.6821 108.938 28.2124 108.938 28.8489C108.938 29.5383 109.203 30.1218 109.747 30.5726C110.211 30.9969 111.073 31.4477 112.306 31.9383C113.831 32.5482 114.945 33.2642 115.661 34.0863C116.377 34.8951 116.681 35.9161 116.681 37.1359C116.681 38.6342 116.217 39.8541 115.17 40.8087C114.016 41.8297 112.412 42.3468 110.357 42.3468C108.461 42.3468 106.936 41.9755 105.782 41.2463L106.445 38.8994C107.678 39.6419 109.044 40.0264 110.529 40.0264C111.59 40.0264 112.425 39.7745 113.022 39.2972C113.605 38.8198 113.91 38.1701 113.91 37.3746C113.91 36.6586 113.658 36.0486 113.168 35.5581C112.69 35.0675 111.868 34.6166 110.741 34.2056C107.652 33.0521 106.101 31.3549 106.101 29.1406C106.101 27.6821 106.644 26.502 107.731 25.5738C108.805 24.6457 110.251 24.1816 112.054 24.1816ZM61.9075 24.4468H65.4212L71.1227 42.0816H68.1128L66.4687 36.9105H60.7407L59.1628 42.0816H56.2325L61.9075 24.4468ZM122.913 26.197V29.366H126.096V31.4875H122.913V37.6663C122.913 39.2309 123.576 40.0132 124.637 40.0132C125.167 40.0132 125.565 40.0132 125.83 39.8806L125.963 42.0286C125.433 42.2275 124.637 42.3335 123.709 42.3335C122.648 42.3335 121.72 41.9888 121.19 41.3126C120.527 40.6363 120.129 39.4961 120.129 37.8784V31.4742H118.273V29.3527H120.129V27.0191L122.913 26.197ZM63.5384 26.7937C63.366 27.5495 63.0876 28.6632 62.703 30.1218L61.2313 34.736H65.9781L64.4798 30.1218C64.3207 29.6577 64.029 28.5439 63.5914 26.7937H63.5384ZM156.724 29.0743C158.581 29.0743 159.907 29.7638 160.835 31.1162C161.63 32.2035 162.028 33.5426 162.028 35.1205C162.028 35.6243 161.896 36.0619 161.896 36.4066H153.41C153.41 37.6663 153.807 38.6209 154.603 39.2839C155.266 39.8806 156.194 40.1723 157.387 40.1723C158.581 40.1723 159.774 39.9734 160.835 39.5756L161.233 41.538C160.039 42.0683 158.581 42.3203 156.99 42.3203C155.001 42.3203 153.41 41.7369 152.349 40.5833C151.156 39.4165 150.625 37.8652 150.625 35.916C150.625 33.9935 151.156 32.3891 152.216 31.1162C153.277 29.7638 154.868 29.0743 156.724 29.0743ZM80.4705 29.0743C81.982 29.0743 83.2284 29.6709 84.2361 30.851C85.2305 32.0443 85.7344 33.6089 85.7344 35.5448C85.7344 37.7061 85.151 39.4165 83.9841 40.6761C82.9367 41.7899 81.6373 42.3468 80.0859 42.3468C78.402 42.3468 77.1954 41.7501 76.4661 40.5435V47.2395H73.5889V33.5559C73.5889 32.1902 73.5889 30.798 73.4563 29.366H75.949L76.0949 31.3814C77.0363 29.8566 78.4683 29.1008 80.3776 29.1008L80.4705 29.0743ZM95.1087 29.0743C96.607 29.0743 97.8666 29.6709 98.861 30.851C99.8687 32.0443 100.373 33.6089 100.373 35.5448C100.373 37.7061 99.7892 39.4165 98.6091 40.6761C97.5749 41.7899 96.2622 42.3468 94.7109 42.3468C93.0402 42.3468 91.8336 41.7501 91.1044 40.5435V47.2395H88.2271V33.5559C88.2271 32.1902 88.2271 30.798 88.0945 29.366H90.574L90.7331 31.3814C91.6745 29.8566 93.1065 29.1008 95.0291 29.1008L95.1087 29.0743ZM148.636 29.0743H149.299V31.7659C149.034 31.7659 148.769 31.6333 148.504 31.6333C147.443 31.6333 146.647 32.0178 146.117 32.7603C145.719 33.4233 145.454 34.2719 145.454 35.2796V41.949H142.537L142.67 33.2377C142.67 31.7659 142.537 30.44 142.537 29.2334H144.924L145.056 31.6598H145.189C145.454 30.8245 145.984 30.1615 146.647 29.6444C147.178 29.1936 147.841 28.9682 148.636 28.9682V29.0743ZM134.051 29.0743C135.907 29.0743 137.366 29.6975 138.559 30.9306C139.62 32.1372 140.15 33.6885 140.15 35.5978C140.15 37.5469 139.62 39.1513 138.427 40.4109C137.233 41.6971 135.775 42.3468 133.786 42.3468C131.93 42.3468 130.471 41.7236 129.278 40.4905C128.217 39.2441 127.687 37.6795 127.687 35.7967C127.687 33.8343 128.217 32.2167 129.41 30.9571C130.471 29.6975 132.062 29.0743 134.051 29.0743ZM156.459 31.0101C155.531 31.0101 154.736 31.3946 154.205 32.1637C153.807 32.7736 153.41 33.5029 153.41 34.3647H159.244C159.244 33.5161 159.111 32.8001 158.713 32.1902C158.183 31.4079 157.52 31.0101 156.459 31.0101ZM133.919 31.1427C132.725 31.1427 131.93 31.6466 131.267 32.6675C130.869 33.5029 130.604 34.5238 130.604 35.7304C130.604 36.9105 130.869 37.9182 131.267 38.7535C131.93 39.7745 132.725 40.2783 133.919 40.2783C134.979 40.2783 135.775 39.7612 136.438 38.727C136.968 37.8784 137.233 36.8575 137.233 35.6774C137.233 34.5106 136.968 33.5029 136.438 32.6675C135.907 31.6466 134.979 31.1427 133.919 31.1427ZM79.5556 31.3283C78.8661 31.3283 78.2296 31.5538 77.6595 32.0178C77.0893 32.4819 76.7181 33.0918 76.5457 33.8343C76.4131 34.1923 76.4131 34.4708 76.4131 34.6962V36.8177C76.4131 37.7458 76.7048 38.5281 77.2617 39.1646C77.8318 39.801 78.5744 40.1192 79.476 40.1192C80.55 40.1192 81.3721 39.7082 81.9687 38.8861C82.5654 38.0641 82.8571 36.9901 82.8571 35.6376C82.8571 34.4045 82.5787 33.3835 82.0218 32.5747C81.4119 31.7659 80.5898 31.3549 79.5556 31.3549V31.3283ZM94.1938 31.3283C93.491 31.3283 92.8679 31.5538 92.2977 32.0178C91.7276 32.4819 91.3563 33.0918 91.1839 33.8343C91.0513 34.1923 91.0513 34.4708 91.0513 34.6962V36.8177C91.0513 37.7458 91.3298 38.5281 91.8999 39.1646C92.4701 39.801 93.1993 40.1192 94.1142 40.1192C95.175 40.1192 96.0103 39.7082 96.607 38.8861C97.1904 38.0641 97.4953 36.9901 97.4953 35.6376C97.4953 34.4045 97.2169 33.3835 96.6467 32.5747C96.0368 31.7394 95.228 31.3283 94.1938 31.3283Z" fill="black"/>
</svg>
