<svg width="155" height="38" viewBox="0 0 155 38" fill="none" xmlns="http://www.w3.org/2000/svg">
<path d="M47.6428 14.9947L42.9549 28.9453H39.6678L45.8128 12.4982H47.9139L47.6428 14.9947ZM51.5625 28.9453L46.8521 14.9947L46.5697 12.4982H48.682L54.861 28.9453H51.5625ZM51.3479 22.8341V25.2854H42.5257V22.8341H51.3479ZM59.3116 19.2194V28.9453H56.3295V16.723H59.1535L59.3116 19.2194ZM63.028 16.6439L62.9828 19.4227C62.8172 19.3926 62.6289 19.37 62.418 19.355C62.2147 19.3399 62.0227 19.3324 61.8419 19.3324C61.3826 19.3324 60.9797 19.3964 60.6333 19.5244C60.2869 19.6449 59.9969 19.8219 59.7635 20.0553C59.5375 20.2888 59.3643 20.5749 59.2439 20.9138C59.1234 21.2452 59.0556 21.6217 59.0405 22.0434L58.3966 21.9643C58.3966 21.1887 58.4757 20.4695 58.6339 19.8068C58.792 19.1441 59.0217 18.5642 59.3229 18.0672C59.6242 17.5702 60.0007 17.1861 60.4525 16.915C60.9119 16.6364 61.4391 16.4971 62.034 16.4971C62.1997 16.4971 62.3766 16.5121 62.5649 16.5422C62.7607 16.5648 62.9151 16.5987 63.028 16.6439ZM64.6547 11.5946H67.6481V26.2456L67.3544 28.9453H64.6547V11.5946ZM75.5102 22.7099V22.9471C75.5102 23.8583 75.4085 24.6942 75.2052 25.4548C75.0094 26.2154 74.7119 26.8744 74.3128 27.4316C73.9137 27.9814 73.4166 28.4106 72.8217 28.7194C72.2343 29.0206 71.5453 29.1712 70.7545 29.1712C70.0015 29.1712 69.3463 29.0244 68.789 28.7307C68.2393 28.437 67.7761 28.0228 67.3996 27.4881C67.0231 26.9459 66.7218 26.3096 66.4959 25.5791C66.27 24.8411 66.1006 24.0353 65.9876 23.1617V22.5179C66.1006 21.6368 66.27 20.831 66.4959 20.1005C66.7218 19.37 67.0231 18.7337 67.3996 18.1915C67.7761 17.6493 68.2393 17.2313 68.789 16.9376C69.3388 16.6439 69.9864 16.4971 70.7319 16.4971C71.5302 16.4971 72.2268 16.6514 72.8217 16.9602C73.4242 17.2614 73.9212 17.6907 74.3128 18.2479C74.7119 18.7977 75.0094 19.4529 75.2052 20.2135C75.4085 20.9665 75.5102 21.7987 75.5102 22.7099ZM72.5167 22.9471V22.7099C72.5167 22.1903 72.4753 21.7008 72.3925 21.2414C72.3096 20.7745 72.1741 20.3641 71.9858 20.0101C71.7975 19.6562 71.5415 19.3775 71.2177 19.1742C70.8939 18.9709 70.4872 18.8692 69.9977 18.8692C69.5308 18.8692 69.1317 18.9483 68.8003 19.1064C68.4765 19.2646 68.2054 19.483 67.987 19.7616C67.7761 20.0403 67.6105 20.3678 67.49 20.7444C67.377 21.1209 67.3017 21.5276 67.2641 21.9643V23.7265C67.3168 24.3064 67.441 24.8298 67.6368 25.2967C67.8326 25.7561 68.1226 26.1213 68.5066 26.3924C68.8982 26.6635 69.4028 26.7991 70.0203 26.7991C70.5023 26.7991 70.9051 26.7049 71.229 26.5167C71.5528 26.3209 71.8088 26.0498 71.9971 25.7033C72.1854 25.3494 72.3172 24.939 72.3925 24.4721C72.4753 24.0052 72.5167 23.4968 72.5167 22.9471ZM80.8419 16.723V28.9453H77.8485V16.723H80.8419ZM77.6451 13.5262C77.6451 13.0819 77.7957 12.7129 78.097 12.4192C78.4057 12.1255 78.8199 11.9786 79.3395 11.9786C79.8592 11.9786 80.2696 12.1255 80.5708 12.4192C80.8796 12.7129 81.034 13.0819 81.034 13.5262C81.034 13.963 80.8796 14.3282 80.5708 14.6219C80.2696 14.9156 79.8592 15.0625 79.3395 15.0625C78.8199 15.0625 78.4057 14.9156 78.097 14.6219C77.7957 14.3282 77.6451 13.963 77.6451 13.5262ZM89.4721 16.723V18.8692H82.4686V16.723H89.4721ZM84.3437 13.7182H87.3372V25.4209C87.3372 25.7824 87.3861 26.0611 87.484 26.2569C87.5819 26.4526 87.7288 26.5844 87.9245 26.6522C88.1203 26.72 88.3538 26.7539 88.6249 26.7539C88.8207 26.7539 89.0014 26.7426 89.1671 26.72C89.3328 26.6974 89.4721 26.6748 89.5851 26.6522L89.5964 28.8888C89.3479 28.9717 89.0655 29.0394 88.7492 29.0922C88.4404 29.1449 88.0902 29.1712 87.6986 29.1712C87.0284 29.1712 86.441 29.0583 85.9364 28.8324C85.4319 28.5989 85.0403 28.2261 84.7617 27.714C84.483 27.1944 84.3437 26.5091 84.3437 25.6582V13.7182Z" fill="#2752E7"/>
<path d="M104.518 20.4394V26.8442C104.277 27.153 103.897 27.4881 103.378 27.8496C102.865 28.2111 102.195 28.5236 101.367 28.7872C100.538 29.0432 99.5218 29.1712 98.3169 29.1712C97.2702 29.1712 96.3138 28.998 95.4477 28.6516C94.5817 28.2977 93.8362 27.7818 93.2111 27.1041C92.5861 26.4263 92.1041 25.5979 91.7652 24.6189C91.4263 23.6399 91.2569 22.5216 91.2569 21.264V20.1796C91.2569 18.9219 91.415 17.8036 91.7313 16.8246C92.0551 15.8456 92.5145 15.0173 93.1094 14.3395C93.7119 13.6617 94.4311 13.1459 95.267 12.7919C96.1104 12.438 97.0518 12.261 98.091 12.261C99.4842 12.261 100.629 12.4907 101.525 12.9501C102.429 13.4095 103.122 14.042 103.603 14.8478C104.085 15.6461 104.387 16.5648 104.507 17.6041H101.48C101.397 17.0317 101.231 16.5309 100.983 16.1017C100.734 15.6649 100.38 15.326 99.921 15.085C99.4691 14.8365 98.8817 14.7123 98.1588 14.7123C97.5488 14.7123 97.0103 14.8328 96.5434 15.0738C96.0765 15.3147 95.6849 15.6649 95.3686 16.1243C95.0524 16.5837 94.8114 17.1522 94.6457 17.83C94.4876 18.5078 94.4085 19.2834 94.4085 20.157V21.264C94.4085 22.1451 94.4989 22.9283 94.6796 23.6136C94.8603 24.2913 95.1201 24.8637 95.459 25.3306C95.8054 25.7899 96.2309 26.1401 96.7355 26.3811C97.2476 26.6146 97.8274 26.7313 98.4751 26.7313C99.0625 26.7313 99.5482 26.6823 99.9323 26.5844C100.324 26.479 100.636 26.3547 100.87 26.2117C101.103 26.0686 101.284 25.9293 101.412 25.7937V22.7099H98.1475V20.4394H104.518ZM120.773 20.3038V21.151C120.773 22.3936 120.608 23.5119 120.276 24.506C119.945 25.4925 119.474 26.3322 118.864 27.025C118.254 27.7178 117.528 28.2487 116.684 28.6177C115.841 28.9867 114.903 29.1712 113.872 29.1712C112.855 29.1712 111.921 28.9867 111.07 28.6177C110.227 28.2487 109.496 27.7178 108.879 27.025C108.261 26.3322 107.783 25.4925 107.444 24.506C107.105 23.5119 106.936 22.3936 106.936 21.151V20.3038C106.936 19.0537 107.105 17.9354 107.444 16.9489C107.783 15.9624 108.257 15.1227 108.867 14.4299C109.477 13.7295 110.204 13.1948 111.048 12.8258C111.899 12.4568 112.832 12.2723 113.849 12.2723C114.881 12.2723 115.818 12.4568 116.662 12.8258C117.505 13.1948 118.232 13.7295 118.842 14.4299C119.459 15.1227 119.934 15.9624 120.265 16.9489C120.604 17.9354 120.773 19.0537 120.773 20.3038ZM117.633 21.151V20.2812C117.633 19.3851 117.55 18.5981 117.385 17.9204C117.219 17.2351 116.974 16.659 116.65 16.1921C116.327 15.7252 115.927 15.375 115.453 15.1415C114.979 14.9005 114.444 14.7801 113.849 14.7801C113.247 14.7801 112.712 14.9005 112.245 15.1415C111.786 15.375 111.394 15.7252 111.07 16.1921C110.746 16.659 110.498 17.2351 110.325 17.9204C110.159 18.5981 110.076 19.3851 110.076 20.2812V21.151C110.076 22.0397 110.159 22.8266 110.325 23.5119C110.498 24.1972 110.746 24.7771 111.07 25.2515C111.402 25.7184 111.801 26.0723 112.268 26.3133C112.734 26.5543 113.269 26.6748 113.872 26.6748C114.474 26.6748 115.009 26.5543 115.476 26.3133C115.943 26.0723 116.334 25.7184 116.65 25.2515C116.974 24.7771 117.219 24.1972 117.385 23.5119C117.55 22.8266 117.633 22.0397 117.633 21.151Z" fill="#2C3131"/>
<g clip-path="url(#clip0_23_6195)">
<path d="M22.3411 29.1809L28.7103 22.7995L32.3413 26.4387C33.0666 27.1644 33.474 28.1484 33.474 29.1744C33.474 30.2004 33.0666 31.1844 32.3413 31.9101L31.4443 32.8071C31.0856 33.1672 30.6593 33.453 30.1898 33.6481C29.7204 33.8431 29.217 33.9435 28.7087 33.9435C28.2003 33.9435 27.6969 33.8431 27.2275 33.6481C26.758 33.453 26.3317 33.1672 25.973 32.8071L22.3411 29.1809ZM32.3324 10.0571L31.4313 9.16005C30.7056 8.43477 29.7216 8.02734 28.6957 8.02734C27.6697 8.02734 26.6857 8.43477 25.96 9.16005L20.5008 14.6314L15.0294 9.16005C14.3037 8.43477 13.3197 8.02734 12.2937 8.02734C11.2677 8.02734 10.2837 8.43477 9.55803 9.16005L8.66103 10.0571C7.93575 10.7827 7.52832 11.7667 7.52832 12.7927C7.52832 13.8187 7.93575 14.8027 8.66103 15.5284L14.1324 20.9998L8.66103 26.4712C7.93575 27.1969 7.52832 28.1809 7.52832 29.2069C7.52832 30.2329 7.93575 31.2169 8.66103 31.9425L9.55803 32.8395C10.2837 33.5648 11.2677 33.9723 12.2937 33.9723C13.3197 33.9723 14.3037 33.5648 15.0294 32.8395L32.3413 15.5276C33.0666 14.8019 33.474 13.8179 33.474 12.7919C33.474 11.7659 33.0666 10.7819 32.3413 10.0562L32.3324 10.0571Z" fill="#1B6AEA"/>
</g>
<defs>
<clipPath id="clip0_23_6195">
<rect width="26" height="26" fill="white" transform="translate(7.5 8)"/>
</clipPath>
</defs>
</svg>
