<svg width="52" height="52" viewBox="0 0 52 52" fill="none" xmlns="http://www.w3.org/2000/svg">
<path d="M47.6717 25.9999C47.6717 14.0334 37.9693 4.33325 26.0007 4.33325C14.032 4.33109 4.33398 14.0334 4.33398 26.0021C4.33398 37.2384 12.8858 46.4771 23.8362 47.5648V43.5716C22.1505 42.2456 20.6338 39.4441 19.635 35.7499H23.8383V32.4999H18.9308C18.3556 28.9175 18.2572 25.2748 18.6383 21.6666H33.3587C33.506 23.0533 33.5862 24.5049 33.5862 25.9999H36.8362C36.8362 24.5179 36.7647 23.0684 36.6303 21.6666H43.906C44.2397 23.0533 44.4195 24.5049 44.4195 25.9999H47.6695H47.6717ZM10.3703 35.7499H16.268L16.489 36.6079C17.1758 39.1429 18.1097 41.3638 19.2407 43.1404C15.571 41.6877 12.4626 39.0986 10.3703 35.7521V35.7499ZM8.09532 21.6666H15.371C15.233 23.1069 15.1643 24.553 15.1652 25.9999C15.1652 28.2598 15.3277 30.4438 15.6353 32.4999H8.76049C7.97826 30.4222 7.57892 28.22 7.58182 25.9999C7.58182 24.5223 7.75515 23.0814 8.08448 21.7034L8.09532 21.6666ZM19.193 8.87892L19.2428 8.86159C17.6807 11.3143 16.4912 14.6206 15.813 18.4166H9.20898C11.1698 14.0833 14.7557 10.6448 19.193 8.87892ZM25.7493 7.59192L26.0007 7.58325L26.2737 7.59625C29.008 7.86925 31.647 12.2004 32.8712 18.4188H19.1323C20.363 12.1831 23.0107 7.84542 25.7515 7.59409L25.7493 7.59192ZM32.9925 9.23859L32.7607 8.86159L33.3912 9.12375C37.5634 10.9575 40.9113 14.2676 42.7923 18.4188H36.1883C35.5427 14.8113 34.442 11.6479 32.9925 9.23859V9.23859Z" fill="#2752E7"/>
<path d="M26 41.1665C26 41.7411 26.2283 42.2922 26.6346 42.6986C27.0409 43.1049 27.592 43.3332 28.1667 43.3332H34.6667V47.6665H33.5833C33.296 47.6665 33.0205 47.7806 32.8173 47.9838C32.6141 48.187 32.5 48.4625 32.5 48.7498C32.5 49.0372 32.6141 49.3127 32.8173 49.5159C33.0205 49.719 33.296 49.8332 33.5833 49.8332H42.25C42.5373 49.8332 42.8129 49.719 43.016 49.5159C43.2192 49.3127 43.3333 49.0372 43.3333 48.7498C43.3333 48.4625 43.2192 48.187 43.016 47.9838C42.8129 47.7806 42.5373 47.6665 42.25 47.6665H41.1667V43.3332H47.6667C48.2413 43.3332 48.7924 43.1049 49.1987 42.6986C49.6051 42.2922 49.8333 41.7411 49.8333 41.1665V30.3332C49.8333 29.7585 49.6051 29.2074 49.1987 28.8011C48.7924 28.3948 48.2413 28.1665 47.6667 28.1665H28.1667C27.592 28.1665 27.0409 28.3948 26.6346 28.8011C26.2283 29.2074 26 29.7585 26 30.3332V41.1665Z" fill="#2752E7"/>
</svg>
