<svg width="42" height="32" viewBox="0 0 42 32" fill="none" xmlns="http://www.w3.org/2000/svg">
<path d="M38.5 0.25H3.5C1.575 0.25 0 1.825 0 3.75V28.25C0 30.175 1.575 31.75 3.5 31.75H38.5C40.425 31.75 41.9825 30.175 41.9825 28.25L42 3.75C42 1.825 40.425 0.25 38.5 0.25ZM14 5.5C16.905 5.5 19.25 7.845 19.25 10.75C19.25 13.655 16.905 16 14 16C11.095 16 8.75 13.655 8.75 10.75C8.75 7.845 11.095 5.5 14 5.5ZM24.5 26.5H3.5V24.75C3.5 21.25 10.5 19.325 14 19.325C17.5 19.325 24.5 21.25 24.5 24.75V26.5ZM31.2375 19.5H34.1075L36.75 23L33.2675 26.4825C30.9491 24.745 29.2696 22.2904 28.49 19.5C28.175 18.38 28 17.2075 28 16C28 14.7925 28.175 13.62 28.49 12.5C29.265 9.7075 30.9454 7.25145 33.2675 5.5175L36.75 9L34.1075 12.5H31.2375C30.8525 13.6025 30.625 14.775 30.625 16C30.625 17.225 30.8525 18.3975 31.2375 19.5Z" fill="#2752E7"/>
</svg>
