<svg width="51" height="51" viewBox="0 0 51 51" fill="none" xmlns="http://www.w3.org/2000/svg">
<path d="M38.208 12.7916H50.9163V38.2083H38.208V43.2916C38.208 43.9657 38.4758 44.6122 38.9524 45.0888C39.4291 45.5655 40.0756 45.8333 40.7497 45.8333H45.833V50.9166H39.4788C38.0809 50.9166 35.6663 49.7728 35.6663 48.3749C35.6663 49.7728 33.2518 50.9166 31.8538 50.9166H25.4997V45.8333H30.583C31.2571 45.8333 31.9036 45.5655 32.3802 45.0888C32.8569 44.6122 33.1247 43.9657 33.1247 43.2916V7.70825C33.1247 7.03416 32.8569 6.38768 32.3802 5.91102C31.9036 5.43437 31.2571 5.16659 30.583 5.16659H25.4997V0.083252H31.8538C33.2518 0.083252 35.6663 1.227 35.6663 2.62492C35.6663 1.227 38.0809 0.083252 39.4788 0.083252H45.833V5.16659H40.7497C40.0756 5.16659 39.4291 5.43437 38.9524 5.91102C38.4758 6.38768 38.208 7.03416 38.208 7.70825V12.7916ZM0.0830078 12.7916H28.0413V17.8749H5.16634V33.1249H28.0413V38.2083H0.0830078V12.7916ZM45.833 33.1249V17.8749H38.208V33.1249H45.833ZM16.6038 25.4999C16.6038 24.4888 16.2022 23.5191 15.4872 22.8041C14.7722 22.0891 13.8025 21.6874 12.7913 21.6874C11.7802 21.6874 10.8105 22.0891 10.0955 22.8041C9.38051 23.5191 8.97884 24.4888 8.97884 25.4999C8.97884 26.5111 9.38051 27.4808 10.0955 28.1958C10.8105 28.9107 11.7802 29.3124 12.7913 29.3124C13.8025 29.3124 14.7722 28.9107 15.4872 28.1958C16.2022 27.4808 16.6038 26.5111 16.6038 25.4999ZM28.0413 22.6787C26.4909 21.2553 24.0763 21.3824 22.653 22.9583C21.2297 24.4833 21.3568 26.8978 22.958 28.3212C24.3559 29.6428 26.5926 29.6428 28.0413 28.3212V22.6787Z" fill="#1B6AEA"/>
</svg>
