<svg width="47" height="47" viewBox="0 0 47 47" fill="none" xmlns="http://www.w3.org/2000/svg">
<g clip-path="url(#clip0_1300_46289)">
<path d="M23.5009 47.0019C36.4802 47.0019 47.0019 36.4802 47.0019 23.5009C47.0019 10.5217 36.4802 0 23.5009 0C10.5217 0 0 10.5217 0 23.5009C0 36.4802 10.5217 47.0019 23.5009 47.0019Z" fill="#616161"/>
<path d="M23.5009 38.4556C15.2406 38.4556 8.54632 31.7613 8.54632 23.5009C8.54632 15.2406 15.2406 8.54631 23.5009 8.54631C27.6292 8.54631 31.3674 10.2204 34.0754 12.9265L40.1183 6.88364C35.865 2.63036 29.9888 0 23.5009 0C10.5215 0 0 10.5215 0 23.5009C0 36.4804 10.5215 47.0019 23.5009 47.0019C29.9907 47.0019 35.865 44.3715 40.1202 40.1201L34.0773 34.0773C31.3674 36.7815 27.6292 38.4556 23.5009 38.4556Z" fill="#9E9E9E"/>
<path d="M38.4563 23.501H30.9781C30.9781 19.3727 27.63 16.0227 23.4998 16.0227C19.3696 16.0227 16.0234 19.3708 16.0234 23.501C16.0234 25.5121 16.8188 27.3357 18.1122 28.6822L18.1065 28.6878L27.3649 37.9462L27.3668 37.9481C33.7524 36.2437 38.4563 30.4225 38.4563 23.501Z" fill="#424242"/>
<path d="M46.9992 23.501H38.4529C38.4529 30.4225 33.747 36.2438 27.3652 37.9481L33.9648 44.5477C41.6912 40.6978 46.9992 32.7196 46.9992 23.501Z" fill="#616161"/>
<path d="M23.5009 46.7329C10.5669 46.7329 0.0757484 36.2835 0.00189372 23.3665C0.00189372 23.4119 0 23.4555 0 23.5009C0 36.4804 10.5215 47.0019 23.5009 47.0019C36.4804 47.0019 47.0019 36.4804 47.0019 23.5009C47.0019 23.4555 47 23.4119 47 23.3665C46.9261 36.2835 36.4331 46.7329 23.5009 46.7329Z" fill="#212121" fill-opacity="0.1"/>
<path d="M27.3672 37.9481L27.5755 38.1564C33.8512 36.3839 38.4548 30.6156 38.4548 23.768V23.501C38.4548 30.4225 33.749 36.2438 27.3672 37.9481Z" fill="white" fill-opacity="0.05"/>
<path d="M42.7281 21.364H23.4994C22.3196 21.364 21.3633 22.3203 21.3633 23.5001C21.3633 24.6799 22.3196 25.6362 23.4994 25.6362H42.7262C43.906 25.6362 44.8623 24.6799 44.8623 23.5001C44.8642 22.3203 43.9079 21.364 42.7281 21.364Z" fill="#9E9E9E"/>
<path opacity="0.5" d="M42.7281 21.364H23.4994C22.3196 21.364 21.3633 22.3203 21.3633 23.5001C21.3633 24.6799 22.3196 25.6362 23.4994 25.6362H42.7262C43.906 25.6362 44.8623 24.6799 44.8623 23.5001C44.8642 22.3203 43.9079 21.364 42.7281 21.364Z" fill="#BDBDBD"/>
<path d="M4.272 25.1031C5.1568 25.1031 5.87408 24.3858 5.87408 23.501C5.87408 22.6162 5.1568 21.8989 4.272 21.8989C3.3872 21.8989 2.66992 22.6162 2.66992 23.501C2.66992 24.3858 3.3872 25.1031 4.272 25.1031Z" fill="#BDBDBD"/>
<path d="M23.5005 5.87432C24.3853 5.87432 25.1026 5.15705 25.1026 4.27225C25.1026 3.38744 24.3853 2.67017 23.5005 2.67017C22.6157 2.67017 21.8984 3.38744 21.8984 4.27225C21.8984 5.15705 22.6157 5.87432 23.5005 5.87432Z" fill="#BDBDBD"/>
<path d="M23.5005 44.3299C24.3853 44.3299 25.1026 43.6126 25.1026 42.7278C25.1026 41.843 24.3853 41.1257 23.5005 41.1257C22.6157 41.1257 21.8984 41.843 21.8984 42.7278C21.8984 43.6126 22.6157 44.3299 23.5005 44.3299Z" fill="#BDBDBD"/>
<path d="M9.88137 11.5062C10.7662 11.5062 11.4835 10.7889 11.4835 9.90408C11.4835 9.01928 10.7662 8.302 9.88137 8.302C8.99657 8.302 8.2793 9.01928 8.2793 9.90408C8.2793 10.7889 8.99657 11.5062 9.88137 11.5062Z" fill="#BDBDBD"/>
<path d="M9.88137 38.7227C10.7662 38.7227 11.4835 38.0054 11.4835 37.1206C11.4835 36.2358 10.7662 35.5186 9.88137 35.5186C8.99657 35.5186 8.2793 36.2358 8.2793 37.1206C8.2793 38.0054 8.99657 38.7227 9.88137 38.7227Z" fill="#BDBDBD"/>
<path d="M37.1196 38.7227C38.0044 38.7227 38.7217 38.0054 38.7217 37.1206C38.7217 36.2358 38.0044 35.5186 37.1196 35.5186C36.2348 35.5186 35.5176 36.2358 35.5176 37.1206C35.5176 38.0054 36.2348 38.7227 37.1196 38.7227Z" fill="#757575"/>
<path d="M23.5013 21.6318H42.7282C43.8625 21.6318 44.7904 22.518 44.8567 23.6353C44.8586 23.5899 44.8643 23.5463 44.8643 23.5009C44.8643 22.3211 43.908 21.3647 42.7282 21.3647H23.5013C22.3216 21.3647 21.3652 22.3211 21.3652 23.5009C21.3652 23.5463 21.3671 23.5899 21.3728 23.6353C21.4391 22.518 22.3651 21.6318 23.5013 21.6318Z" fill="white" fill-opacity="0.2"/>
<path d="M44.8567 23.6335C44.7866 24.7489 43.8606 25.6371 42.7282 25.6371H23.5013C22.367 25.6371 21.4391 24.7508 21.3728 23.6335C21.3671 23.679 21.3652 23.7225 21.3652 23.7661C21.3652 24.9459 22.3216 25.9022 23.5013 25.9022H42.7282C43.908 25.9022 44.8643 24.9459 44.8643 23.7661C44.8643 23.7225 44.8624 23.679 44.8567 23.6335Z" fill="#212121" fill-opacity="0.2"/>
<path d="M23.5015 8.81318C27.6298 8.81318 31.368 10.4872 34.076 13.1933L40.2495 7.01605C40.204 6.9706 40.1605 6.92515 40.1169 6.88159L34.076 12.9244C31.368 10.2183 27.6298 8.54427 23.5015 8.54427C15.2411 8.54427 8.54688 15.2385 8.54688 23.4989C8.54688 23.5443 8.54877 23.5879 8.54877 23.6334C8.62073 15.4355 15.2866 8.81318 23.5015 8.81318Z" fill="#212121" fill-opacity="0.1"/>
<path d="M23.5009 47.0019C36.4802 47.0019 47.0019 36.4802 47.0019 23.5009C47.0019 10.5217 36.4802 0 23.5009 0C10.5217 0 0 10.5217 0 23.5009C0 36.4802 10.5217 47.0019 23.5009 47.0019Z" fill="url(#paint0_radial_1300_46289)"/>
</g>
<defs>
<radialGradient id="paint0_radial_1300_46289" cx="0" cy="0" r="1" gradientUnits="userSpaceOnUse" gradientTransform="translate(6.8918 6.83828) scale(46.9207)">
<stop stop-color="white" stop-opacity="0.1"/>
<stop offset="1" stop-color="white" stop-opacity="0"/>
</radialGradient>
<clipPath id="clip0_1300_46289">
<rect width="47" height="47" fill="white"/>
</clipPath>
</defs>
</svg>
