<svg width="180" height="54" viewBox="0 0 180 54" fill="none" xmlns="http://www.w3.org/2000/svg">
<rect width="180" height="54" fill="#3E3E3E"/>
<g clip-path="url(#clip0_2_5804)">
<rect width="1440" height="1377" transform="translate(-527 -572)" fill="white"/>
<rect opacity="0.5" x="-476.25" y="-274.25" width="1265.5" height="555.5" rx="3.25" stroke="#DDE4EA" stroke-width="1.5"/>
<g clip-path="url(#clip1_2_5804)">
<path d="M173.333 53.3426H6.66667C2.93333 53.3426 0 50.4093 0 46.6759V6.67594C0 2.94261 2.93333 0.00927734 6.66667 0.00927734H173.333C177.067 0.00927734 180 2.94261 180 6.67594V46.6759C180 50.4093 177.067 53.3426 173.333 53.3426Z" fill="black"/>
<path d="M173.333 1.07594C176.4 1.07594 178.933 3.60928 178.933 6.67594V46.6759C178.933 49.7426 176.4 52.2759 173.333 52.2759H6.66667C3.6 52.2759 1.06667 49.7426 1.06667 46.6759V6.67594C1.06667 3.60928 3.6 1.07594 6.66667 1.07594H173.333ZM173.333 0.00927734H6.66667C2.93333 0.00927734 0 3.07594 0 6.67594V46.6759C0 50.4093 2.93333 53.3426 6.66667 53.3426H173.333C177.067 53.3426 180 50.4093 180 46.6759V6.67594C180 3.07594 177.067 0.00927734 173.333 0.00927734Z" fill="#A6A6A6"/>
<path d="M63.1992 13.6092C63.1992 14.6759 62.9326 15.6092 62.2659 16.2759C61.4659 17.0759 60.5325 17.4759 59.3326 17.4759C58.1326 17.4759 57.1992 17.0759 56.3992 16.2759C55.5992 15.4759 55.1992 14.5426 55.1992 13.3426C55.1992 12.1426 55.5992 11.2092 56.3992 10.4092C57.1992 9.60923 58.1326 9.20923 59.3326 9.20923C59.8659 9.20923 60.3992 9.34256 60.9326 9.60923C61.4659 9.87589 61.8659 10.1426 62.1325 10.5426L61.4659 11.2092C60.9325 10.5426 60.2659 10.2759 59.3326 10.2759C58.5325 10.2759 57.7326 10.5426 57.1992 11.2092C56.5326 11.7426 56.2659 12.5426 56.2659 13.4759C56.2659 14.4092 56.5326 15.2092 57.1992 15.7426C57.8659 16.2759 58.5325 16.6759 59.3326 16.6759C60.2659 16.6759 60.9326 16.4092 61.5992 15.7426C61.9992 15.3426 62.2659 14.8092 62.2659 14.1426H59.3326V13.0759H63.1992V13.6092ZM69.3326 10.2759H65.7325V12.8092H69.0659V13.7426H65.7325V16.2759H69.3326V17.3426H64.6659V9.34256H69.3326V10.2759ZM73.7325 17.3426H72.6659V10.2759H70.3992V9.34256H75.9992V10.2759H73.7325V17.3426ZM79.8659 17.3426V9.34256H80.9326V17.3426H79.8659ZM85.4659 17.3426H84.3992V10.2759H82.1325V9.34256H87.5992V10.2759H85.3326V17.3426H85.4659ZM98.1325 16.2759C97.3326 17.0759 96.3992 17.4759 95.1992 17.4759C93.9992 17.4759 93.0659 17.0759 92.2659 16.2759C91.4659 15.4759 91.0659 14.5426 91.0659 13.3426C91.0659 12.1426 91.4659 11.2092 92.2659 10.4092C93.0659 9.60923 93.9992 9.20923 95.1992 9.20923C96.3992 9.20923 97.3326 9.60923 98.1325 10.4092C98.9325 11.2092 99.3326 12.1426 99.3326 13.3426C99.3326 14.5426 98.9325 15.4759 98.1325 16.2759ZM93.0659 15.6092C93.5992 16.1426 94.3992 16.5426 95.1992 16.5426C95.9992 16.5426 96.7992 16.2759 97.3326 15.6092C97.8659 15.0759 98.2659 14.2759 98.2659 13.3426C98.2659 12.4092 97.9992 11.6092 97.3326 11.0759C96.7992 10.5426 95.9992 10.1426 95.1992 10.1426C94.3992 10.1426 93.5992 10.4092 93.0659 11.0759C92.5326 11.6092 92.1325 12.4092 92.1325 13.3426C92.1325 14.2759 92.3992 15.0759 93.0659 15.6092ZM100.799 17.3426V9.34256H101.999L105.866 15.6092V9.34256H106.933V17.3426H105.866L101.733 10.8092V17.3426H100.799Z" fill="white" stroke="white" stroke-width="0.266667" stroke-miterlimit="10"/>
<path d="M90.8008 29.076C87.6008 29.076 85.0674 31.476 85.0674 34.8093C85.0674 38.0093 87.6008 40.5427 90.8008 40.5427C94.0008 40.5427 96.5341 38.1427 96.5341 34.8093C96.5341 31.3427 94.0008 29.076 90.8008 29.076ZM90.8008 38.1427C89.0674 38.1427 87.6008 36.676 87.6008 34.676C87.6008 32.676 89.0674 31.2093 90.8008 31.2093C92.5341 31.2093 94.0008 32.5427 94.0008 34.676C94.0008 36.676 92.5341 38.1427 90.8008 38.1427ZM78.4008 29.076C75.2008 29.076 72.6674 31.476 72.6674 34.8093C72.6674 38.0093 75.2008 40.5427 78.4008 40.5427C81.6008 40.5427 84.1341 38.1427 84.1341 34.8093C84.1341 31.3427 81.6008 29.076 78.4008 29.076ZM78.4008 38.1427C76.6674 38.1427 75.2008 36.676 75.2008 34.676C75.2008 32.676 76.6674 31.2093 78.4008 31.2093C80.1341 31.2093 81.6008 32.5427 81.6008 34.676C81.6008 36.676 80.1341 38.1427 78.4008 38.1427ZM63.6008 30.8093V33.2093H69.3341C69.2008 34.5427 68.6674 35.6093 68.0008 36.276C67.2008 37.076 65.8675 38.0093 63.6008 38.0093C60.0008 38.0093 57.3341 35.2093 57.3341 31.6093C57.3341 28.0093 60.1341 25.2093 63.6008 25.2093C65.4675 25.2093 66.9341 26.0093 68.0008 26.9427L69.7341 25.2093C68.2674 23.876 66.4008 22.8093 63.7341 22.8093C58.9341 22.8093 54.8008 26.8093 54.8008 31.6093C54.8008 36.4093 58.9341 40.4093 63.7341 40.4093C66.4008 40.4093 68.2675 39.6093 69.8675 37.876C71.4675 36.276 72.0008 34.0093 72.0008 32.276C72.0008 31.7427 72.0008 31.2093 71.8675 30.8093H63.6008ZM124.134 32.676C123.601 31.3427 122.267 29.076 119.334 29.076C116.401 29.076 114.001 31.3427 114.001 34.8093C114.001 38.0093 116.401 40.5427 119.601 40.5427C122.134 40.5427 123.734 38.9427 124.267 38.0093L122.401 36.676C121.734 37.6093 120.934 38.276 119.601 38.276C118.267 38.276 117.467 37.7427 116.801 36.5427L124.401 33.3427L124.134 32.676ZM116.401 34.5427C116.401 32.4093 118.134 31.2093 119.334 31.2093C120.267 31.2093 121.201 31.7427 121.467 32.4093L116.401 34.5427ZM110.134 40.0093H112.667V23.3427H110.134V40.0093ZM106.134 30.276C105.467 29.6093 104.401 28.9427 103.067 28.9427C100.267 28.9427 97.6008 31.476 97.6008 34.676C97.6008 37.876 100.134 40.276 103.067 40.276C104.401 40.276 105.467 39.6093 106.001 38.9427H106.134V39.7427C106.134 41.876 104.934 43.076 103.067 43.076C101.601 43.076 100.534 42.0093 100.267 41.076L98.1341 42.0093C98.8008 43.476 100.401 45.3427 103.201 45.3427C106.134 45.3427 108.534 43.6093 108.534 39.476V29.3427H106.134V30.276ZM103.201 38.1427C101.467 38.1427 100.001 36.676 100.001 34.676C100.001 32.676 101.467 31.2093 103.201 31.2093C104.934 31.2093 106.267 32.676 106.267 34.676C106.267 36.676 104.934 38.1427 103.201 38.1427ZM135.734 23.3427H129.734V40.0093H132.267V33.7427H135.734C138.534 33.7427 141.201 31.7427 141.201 28.5427C141.201 25.3427 138.534 23.3427 135.734 23.3427ZM135.867 31.3427H132.267V25.6093H135.867C137.734 25.6093 138.801 27.2093 138.801 28.4093C138.667 29.876 137.601 31.3427 135.867 31.3427ZM151.201 28.9427C149.334 28.9427 147.467 29.7427 146.801 31.476L149.067 32.4093C149.601 31.476 150.401 31.2093 151.334 31.2093C152.667 31.2093 153.867 32.0093 154.001 33.3427V33.476C153.601 33.2093 152.534 32.8093 151.467 32.8093C149.067 32.8093 146.667 34.1427 146.667 36.5427C146.667 38.8093 148.667 40.276 150.801 40.276C152.534 40.276 153.334 39.476 154.001 38.676H154.134V40.0093H156.534V33.6093C156.267 30.676 154.001 28.9427 151.201 28.9427ZM150.934 38.1427C150.134 38.1427 148.934 37.7427 148.934 36.676C148.934 35.3427 150.401 34.9427 151.601 34.9427C152.667 34.9427 153.201 35.2093 153.867 35.476C153.601 37.076 152.267 38.1427 150.934 38.1427ZM164.934 29.3427L162.134 36.5427H162.001L159.067 29.3427H156.401L160.801 39.476L158.267 45.076H160.801L167.601 29.3427H164.934ZM142.534 40.0093H145.067V23.3427H142.534V40.0093Z" fill="white"/>
<path d="M13.8673 10.0093C13.4673 10.4093 13.334 11.0759 13.334 11.8759V41.3426C13.334 42.1426 13.6007 42.8093 14.0007 43.2093L14.134 43.3426L30.6673 26.8093V26.5426L13.8673 10.0093Z" fill="url(#paint0_linear_2_5804)"/>
<path d="M35.9999 32.4093L30.5332 26.9426V26.5426L35.9999 21.0759L36.1332 21.2093L42.6665 24.9426C44.5332 26.0093 44.5332 27.7426 42.6665 28.8093L35.9999 32.4093Z" fill="url(#paint1_linear_2_5804)"/>
<path d="M36.1339 32.276L30.5339 26.676L13.8672 43.3427C14.5339 44.0094 15.4672 44.0094 16.6672 43.476L36.1339 32.276Z" fill="url(#paint2_linear_2_5804)"/>
<path d="M36.1339 21.076L16.6672 10.0093C15.4672 9.34268 14.5339 9.47601 13.8672 10.1427L30.5339 26.676L36.1339 21.076Z" fill="url(#paint3_linear_2_5804)"/>
<path opacity="0.2" d="M36.0005 32.1426L16.6672 43.0759C15.6005 43.7426 14.6672 43.6092 14.0005 43.0759L13.8672 43.2092L14.0005 43.3426C14.6672 43.8759 15.6005 44.0092 16.6672 43.3426L36.0005 32.1426Z" fill="black"/>
<path opacity="0.12" d="M13.8673 43.076C13.4673 42.676 13.334 42.0094 13.334 41.2094V41.3427C13.334 42.1427 13.6007 42.8094 14.0007 43.2094V43.076H13.8673ZM42.6673 28.4094L36.0007 32.1427L36.134 32.276L42.6673 28.5427C43.6007 28.0094 44.0007 27.3427 44.0007 26.676C44.0007 27.3427 43.4673 27.876 42.6673 28.4094Z" fill="black"/>
<path opacity="0.25" d="M16.6673 10.1426L42.6673 24.9426C43.4673 25.4759 44.0007 26.0092 44.0007 26.6759C44.0007 26.0092 43.6007 25.3426 42.6673 24.8092L16.6673 10.0092C14.8007 8.94256 13.334 9.74256 13.334 11.8759V12.0092C13.334 10.0092 14.8007 9.0759 16.6673 10.1426Z" fill="white"/>
</g>
<rect opacity="0.5" x="-61.25" y="-66.25" width="501.5" height="177.5" rx="3.25" stroke="#DDE4EA" stroke-width="1.5"/>
</g>
<defs>
<linearGradient id="paint0_linear_2_5804" x1="29.0673" y1="11.6226" x2="6.68999" y2="33.9986" gradientUnits="userSpaceOnUse">
<stop stop-color="#00A0FF"/>
<stop offset="0.007" stop-color="#00A1FF"/>
<stop offset="0.26" stop-color="#00BEFF"/>
<stop offset="0.512" stop-color="#00D2FF"/>
<stop offset="0.76" stop-color="#00DFFF"/>
<stop offset="1" stop-color="#00E3FF"/>
</linearGradient>
<linearGradient id="paint1_linear_2_5804" x1="45.1119" y1="26.6773" x2="12.8492" y2="26.6773" gradientUnits="userSpaceOnUse">
<stop stop-color="#FFE000"/>
<stop offset="0.409" stop-color="#FFBD00"/>
<stop offset="0.775" stop-color="#FFA500"/>
<stop offset="1" stop-color="#FF9C00"/>
</linearGradient>
<linearGradient id="paint2_linear_2_5804" x1="33.1032" y1="29.7374" x2="2.75919" y2="60.0814" gradientUnits="userSpaceOnUse">
<stop stop-color="#FF3A44"/>
<stop offset="1" stop-color="#C31162"/>
</linearGradient>
<linearGradient id="paint3_linear_2_5804" x1="9.72985" y1="0.244013" x2="23.2805" y2="13.7947" gradientUnits="userSpaceOnUse">
<stop stop-color="#32A071"/>
<stop offset="0.069" stop-color="#2DA771"/>
<stop offset="0.476" stop-color="#15CF74"/>
<stop offset="0.801" stop-color="#06E775"/>
<stop offset="1" stop-color="#00F076"/>
</linearGradient>
<clipPath id="clip0_2_5804">
<rect width="1440" height="1377" fill="white" transform="translate(-527 -572)"/>
</clipPath>
<clipPath id="clip1_2_5804">
<rect width="180" height="53.352" fill="white"/>
</clipPath>
</defs>
</svg>
