<svg width="105" height="106" viewBox="0 0 105 106" fill="none" xmlns="http://www.w3.org/2000/svg">
<path d="M7.875 30.6875V97.625H74.8125V30.6875H7.875ZM4.15625 23.25H78.5312C79.5175 23.25 80.4634 23.6418 81.1608 24.3392C81.8582 25.0366 82.25 25.9825 82.25 26.9688V101.344C82.25 102.33 81.8582 103.276 81.1608 103.973C80.4634 104.671 79.5175 105.062 78.5312 105.062H4.15625C3.16998 105.062 2.2241 104.671 1.5267 103.973C0.829296 103.276 0.4375 102.33 0.4375 101.344V26.9688C0.4375 25.9825 0.829296 25.0366 1.5267 24.3392C2.2241 23.6418 3.16998 23.25 4.15625 23.25ZM104.562 4.65625V86.4688C104.562 87.455 104.171 88.4009 103.473 89.0983C102.776 89.7957 101.83 90.1875 100.844 90.1875H89.6875V82.75H97.125V8.375H37.625V15.8125H30.1875V4.65625C30.1875 3.66998 30.5793 2.7241 31.2767 2.0267C31.9741 1.3293 32.92 0.9375 33.9062 0.9375H100.844C101.83 0.9375 102.776 1.3293 103.473 2.0267C104.171 2.7241 104.562 3.66998 104.562 4.65625ZM22.75 71.5938H59.9375V79.0312H22.75V71.5938ZM22.75 49.2812H59.9375V56.7188H22.75V49.2812Z" fill="#1B6AEA"/>
</svg>
