<svg width="53" height="40" viewBox="0 0 53 40" fill="none" xmlns="http://www.w3.org/2000/svg">
<path d="M48.5833 3.90997H30.9167V9.77493H22.0833V3.90997H4.41667C3.24529 3.90997 2.1219 4.32191 1.29361 5.05517C0.465326 5.78843 0 6.78295 0 7.81994L0 35.1897C0 36.2267 0.465326 37.2212 1.29361 37.9545C2.1219 38.6878 3.24529 39.0997 4.41667 39.0997H48.5833C49.7547 39.0997 50.8781 38.6878 51.7064 37.9545C52.5347 37.2212 53 36.2267 53 35.1897V7.81994C53 6.78295 52.5347 5.78843 51.7064 5.05517C50.8781 4.32191 49.7547 3.90997 48.5833 3.90997ZM17.6667 13.6849C18.838 13.6849 19.9614 14.0968 20.7897 14.8301C21.618 15.5634 22.0833 16.5579 22.0833 17.5949C22.0833 18.6319 21.618 19.6264 20.7897 20.3596C19.9614 21.0929 18.838 21.5048 17.6667 21.5048C16.4953 21.5048 15.3719 21.0929 14.5436 20.3596C13.7153 19.6264 13.25 18.6319 13.25 17.5949C13.25 16.5579 13.7153 15.5634 14.5436 14.8301C15.3719 14.0968 16.4953 13.6849 17.6667 13.6849ZM26.5 29.3248H8.83333V27.3698C8.83333 24.7697 14.7296 23.4598 17.6667 23.4598C20.6038 23.4598 26.5 24.7697 26.5 27.3698V29.3248ZM44.1667 31.2798H30.9167V27.3698H44.1667V31.2798ZM44.1667 23.4598H30.9167V19.5499H44.1667V23.4598ZM44.1667 15.6399H30.9167V11.7299H44.1667V15.6399ZM28.7083 7.81994H24.2917V0H28.7083V7.81994Z" fill="#2752E7"/>
</svg>
